<?xml version="1.0" encoding="UTF-8" standalone="no"?>
<svg
   xmlns:dc="http://purl.org/dc/elements/1.1/"
   xmlns:cc="http://creativecommons.org/ns#"
   xmlns:rdf="http://www.w3.org/1999/02/22-rdf-syntax-ns#"
   xmlns:svg="http://www.w3.org/2000/svg"
   xmlns="http://www.w3.org/2000/svg"
   viewBox="0 0 933.33331 1066.6667"
   height="1066.6667"
   width="933.33331"
   xml:space="preserve"
   id="svg2"
   version="1.1"><metadata
     id="metadata8"><rdf:RDF><cc:Work
         rdf:about=""><dc:format>image/svg+xml</dc:format><dc:type
           rdf:resource="http://purl.org/dc/dcmitype/StillImage" /><dc:title></dc:title></cc:Work></rdf:RDF></metadata><defs
     id="defs6"><clipPath
       id="clipPath20"
       clipPathUnits="userSpaceOnUse"><path
         id="path18"
         d="M 0,800 H 700 V 0 H 0 Z" /></clipPath><clipPath
       id="clipPath40"
       clipPathUnits="userSpaceOnUse"><path
         id="path38"
         d="M 147.155,478.311 H 335.542 V 405.938 H 147.155 Z" /></clipPath><clipPath
       id="clipPath56"
       clipPathUnits="userSpaceOnUse"><path
         id="path54"
         d="M 183.476,416.019 H 335.542 V 359.124 H 183.476 Z" /></clipPath><clipPath
       id="clipPath72"
       clipPathUnits="userSpaceOnUse"><path
         id="path70"
         d="M 219.357,353.726 H 335.542 V 313.623 H 219.357 Z" /></clipPath><clipPath
       id="clipPath88"
       clipPathUnits="userSpaceOnUse"><path
         id="path86"
         d="M 128.215,513.981 H 350 V 290.263 H 128.215 Z" /></clipPath><clipPath
       id="clipPath104"
       clipPathUnits="userSpaceOnUse"><path
         id="path102"
         d="M 366.115,509.457 H 572.564 V 429.59 H 366.115 Z" /></clipPath><clipPath
       id="clipPath120"
       clipPathUnits="userSpaceOnUse"><path
         id="path118"
         d="M 366.115,478.311 H 554.502 V 405.938 H 366.115 Z" /></clipPath><clipPath
       id="clipPath136"
       clipPathUnits="userSpaceOnUse"><path
         id="path134"
         d="M 366.115,447.165 H 536.314 V 382.512 H 366.115 Z" /></clipPath><clipPath
       id="clipPath152"
       clipPathUnits="userSpaceOnUse"><path
         id="path150"
         d="M 366.115,416.019 H 518.18 V 359.124 H 366.115 Z" /></clipPath><clipPath
       id="clipPath168"
       clipPathUnits="userSpaceOnUse"><path
         id="path166"
         d="M 366.115,384.873 H 500.27 V 335.876 H 366.115 Z" /></clipPath><clipPath
       id="clipPath184"
       clipPathUnits="userSpaceOnUse"><path
         id="path182"
         d="M 366.115,353.726 H 482.299 V 313.623 H 366.115 Z" /></clipPath><clipPath
       id="clipPath200"
       clipPathUnits="userSpaceOnUse"><path
         id="path198"
         d="m 366.115,322.58 h 99.026 v -32.317 h -99.026 z" /></clipPath></defs><g
     transform="matrix(1.3333333,0,0,-1.3333333,0,1066.6667)"
     id="g10"><path
       id="path12"
       style="fill:#595a5a;fill-opacity:1;fill-rule:nonzero;stroke:none"
       d="m 366.114,517.244 h -31.401 v 26.986 h 31.401 z" /><g
       id="g14"><g
         clip-path="url(#clipPath20)"
         id="g16"><g
           transform="translate(340.9497,743.5386)"
           id="g22"><path
             id="path24"
             style="fill:#ffffff;fill-opacity:1;fill-rule:nonzero;stroke:none"
             d="m 0,0 -173.439,-83.122 c -3.008,-1.404 -5.192,-4.125 -5.915,-7.363 l -34.737,-153.654 c -1.164,-5.218 3.617,-9.814 8.786,-8.444 l 208.683,57.386 c 1.856,0.511 3.765,0.766 5.672,0.766 V 2.009 C 5.959,2.009 2.868,1.339 0,0" /></g><g
           transform="translate(573.7451,459.8613)"
           id="g26"><path
             id="path28"
             style="fill:#4d68b1;fill-opacity:1;fill-rule:nonzero;stroke:none"
             d="m 0,0 -219.719,59.692 c -1.322,0.366 -2.671,0.595 -4.026,0.701 v -237.087 l 91.693,-0.717 c 6.767,-0.049 13.157,3.106 17.232,8.508 L 3.893,-11.034 C 6.788,-7.004 4.784,-1.321 0,0" /></g><g
           transform="translate(342.6553,519.5586)"
           id="g30"><path
             id="path32"
             style="fill:#a9c9ea;fill-opacity:1;fill-rule:nonzero;stroke:none"
             d="m 0,0 -216.395,-58.97 c -4.843,-1.333 -6.826,-7.122 -3.817,-11.145 l 121.344,-157.383 c 4.022,-5.131 10.162,-8.148 16.681,-8.194 l 89.532,-0.7 V 0.695 C 4.884,0.888 2.399,0.66 0,0" /></g><g
           id="g34"><g
             id="g36" /><g
             id="g48"><g
               style="opacity:0.85000598"
               id="g46"
               clip-path="url(#clipPath40)"><g
                 id="g44"
                 transform="translate(147.1543,429.5898)"><path
                   id="path42"
                   style="fill:#749cd2;fill-opacity:1;fill-rule:nonzero;stroke:none"
                   d="M 0,0 188.388,48.721 V 17.575 l -170.2,-41.227 z" /></g></g></g></g><g
           id="g50"><g
             id="g52" /><g
             id="g64"><g
               style="opacity:0.85000598"
               id="g62"
               clip-path="url(#clipPath56)"><g
                 id="g60"
                 transform="translate(183.4761,382.5117)"><path
                   id="path58"
                   style="fill:#749cd2;fill-opacity:1;fill-rule:nonzero;stroke:none"
                   d="M 0,0 152.066,33.507 V 2.36 L 17.911,-23.388 Z" /></g></g></g></g><g
           id="g66"><g
             id="g68" /><g
             id="g80"><g
               style="opacity:0.85000598"
               id="g78"
               clip-path="url(#clipPath72)"><g
                 id="g76"
                 transform="translate(219.3574,335.876)"><path
                   id="path74"
                   style="fill:#749cd2;fill-opacity:1;fill-rule:nonzero;stroke:none"
                   d="M 0,0 116.185,17.851 V -13.296 L 17.158,-22.253 Z" /></g></g></g></g><g
           id="g82"><g
             id="g84" /><g
             id="g96"><g
               style="opacity:0.14999402"
               id="g94"
               clip-path="url(#clipPath88)"><g
                 id="g92"
                 transform="translate(349.1123,513.9561)"><path
                   id="path90"
                   style="fill:#4d68b1;fill-opacity:1;fill-rule:nonzero;stroke:none"
                   d="m 0,0 -220.897,-59.416 18.939,-24.95 188.388,48.721 v -31.147 l -170.2,-41.226 18.134,-23.426 152.066,33.506 v -31.145 l -134.156,-25.749 17.971,-23.248 116.185,17.851 v -31.147 l -99.027,-8.957 13.117,-17.301 c 2.536,-3.345 6.478,-5.326 10.676,-5.365 l 75.234,-0.693 H 0.888 V -0.679 C 0.888,-0.215 0.447,0.122 0,0" /></g></g></g></g><g
           id="g98"><g
             id="g100" /><g
             id="g112"><g
               style="opacity:0.25"
               id="g110"
               clip-path="url(#clipPath104)"><g
                 id="g108"
                 transform="translate(554.502,429.5898)"><path
                   id="path106"
                   style="fill:#4d68b1;fill-opacity:1;fill-rule:nonzero;stroke:none"
                   d="M 0,0 -188.388,48.721 V 79.867 L 18.062,23.794 Z" /></g></g></g></g><g
           id="g114"><g
             id="g116" /><g
             id="g128"><g
               style="opacity:0.5"
               id="g126"
               clip-path="url(#clipPath120)"><g
                 id="g124"
                 transform="translate(554.502,429.5898)"><path
                   id="path122"
                   style="fill:#749cd2;fill-opacity:1;fill-rule:nonzero;stroke:none"
                   d="M 0,0 -188.388,48.721 V 17.575 l 170.201,-41.227 z" /></g></g></g></g><g
           id="g130"><g
             id="g132" /><g
             id="g144"><g
               style="opacity:0.25"
               id="g142"
               clip-path="url(#clipPath136)"><g
                 id="g140"
                 transform="translate(536.3145,405.938)"><path
                   id="path138"
                   style="fill:#4d68b1;fill-opacity:1;fill-rule:nonzero;stroke:none"
                   d="M 0,0 -170.2,41.227 V 10.081 l 152.065,-33.507 z" /></g></g></g></g><g
           id="g146"><g
             id="g148" /><g
             id="g160"><g
               style="opacity:0.5"
               id="g158"
               clip-path="url(#clipPath152)"><g
                 id="g156"
                 transform="translate(518.1797,382.5117)"><path
                   id="path154"
                   style="fill:#749cd2;fill-opacity:1;fill-rule:nonzero;stroke:none"
                   d="M 0,0 -152.065,33.507 V 2.36 L -17.91,-23.388 Z" /></g></g></g></g><g
           id="g162"><g
             id="g164" /><g
             id="g176"><g
               style="opacity:0.25"
               id="g174"
               clip-path="url(#clipPath168)"><g
                 id="g172"
                 transform="translate(500.2695,359.124)"><path
                   id="path170"
                   style="fill:#4d68b1;fill-opacity:1;fill-rule:nonzero;stroke:none"
                   d="M 0,0 -134.155,25.748 V -5.397 l 116.184,-17.851 z" /></g></g></g></g><g
           id="g178"><g
             id="g180" /><g
             id="g192"><g
               style="opacity:0.5"
               id="g190"
               clip-path="url(#clipPath184)"><g
                 id="g188"
                 transform="translate(482.2988,335.876)"><path
                   id="path186"
                   style="fill:#749cd2;fill-opacity:1;fill-rule:nonzero;stroke:none"
                   d="m 0,0 -116.185,17.851 v -31.147 l 99.027,-8.957 z" /></g></g></g></g><g
           id="g194"><g
             id="g196" /><g
             id="g208"><g
               style="opacity:0.25"
               id="g206"
               clip-path="url(#clipPath200)"><g
                 id="g204"
                 transform="translate(465.1406,313.623)"><path
                   id="path202"
                   style="fill:#4d68b1;fill-opacity:1;fill-rule:nonzero;stroke:none"
                   d="m 0,0 -99.026,8.957 v -32.316 l 75.234,0.693 c 4.197,0.039 8.14,2.02 10.676,5.365 z" /></g></g></g></g><g
           transform="translate(573.7451,459.8613)"
           id="g210"><path
             id="path212"
             style="fill:none;stroke:#595a5a;stroke-width:14.41499996;stroke-linecap:butt;stroke-linejoin:miter;stroke-miterlimit:10;stroke-dasharray:none;stroke-opacity:1"
             d="m 0,0 -219.719,59.692 c -1.322,0.366 -2.671,0.595 -4.026,0.701 -2.461,0.192 -4.945,-0.036 -7.345,-0.696 L -447.484,0.728 c -4.844,-1.333 -6.827,-7.123 -3.818,-11.146 l 121.344,-157.384 c 4.022,-5.13 10.163,-8.146 16.681,-8.193 l 89.532,-0.699 91.693,-0.717 c 6.767,-0.049 13.157,3.106 17.232,8.508 L 3.893,-11.034 C 6.788,-7.004 4.784,-1.321 0,0 Z" /></g><g
           transform="translate(573.1553,501.6147)"
           id="g214"><path
             id="path216"
             style="fill:none;stroke:#595a5a;stroke-width:14.41499996;stroke-linecap:butt;stroke-linejoin:miter;stroke-miterlimit:10;stroke-dasharray:none;stroke-opacity:1"
             d="m 0,0 -34.751,153.657 c -0.723,3.239 -2.907,5.958 -5.914,7.363 l -173.44,83.122 c -2.868,1.339 -5.959,2.008 -9.05,2.008 -3.092,0 -6.182,-0.669 -9.051,-2.008 L -405.645,161.02 c -3.007,-1.404 -5.192,-4.125 -5.915,-7.364 L -446.297,0.003 c -1.163,-5.219 3.618,-9.814 8.786,-8.444 l 208.684,57.386 c 1.856,0.511 3.764,0.765 5.672,0.765 1.908,0 3.815,-0.254 5.672,-0.765 L -8.786,-8.445 C -3.617,-9.815 1.164,-5.219 0,0 Z" /></g><g
           transform="translate(107.1167,174.7119)"
           id="g218"><path
             id="path220"
             style="fill:#595a5a;fill-opacity:1;fill-rule:nonzero;stroke:none"
             d="m 0,0 c 7.628,5.701 14.203,9.91 19.581,12.531 5.487,2.676 10.99,4.033 16.354,4.033 10.89,0 14.761,-4.196 16.724,-7.351 2.621,-4.214 5.745,-13.589 5.745,-34.32 0,-20.99 -3.156,-30.023 -5.804,-33.904 -1.184,-1.736 -4.789,-7.018 -18.162,-7.018 -8.064,0 -19.632,2.283 -34.438,6.792 z m 40.423,46.934 c -15.077,0 -29.454,-4.914 -42.904,-14.637 l -0.855,11.395 h -28.781 v -187.97 H 0 v 44.712 c 0.133,3.739 0.184,7.315 0.154,10.717 12.317,-5.015 24.973,-7.55 37.776,-7.55 18.463,0 32.219,5.942 40.884,17.666 8.213,11.112 12.205,28.572 12.205,53.377 0,23.935 -3.692,41.295 -11.286,53.075 -8.229,12.75 -21.454,19.215 -39.31,19.215" /></g><g
           transform="translate(293.4194,221.6455)"
           id="g222"><path
             id="path224"
             style="fill:#595a5a;fill-opacity:1;fill-rule:nonzero;stroke:none"
             d="m 0,0 c -14.232,0 -29.812,-5.488 -46.448,-16.34 l -1.146,13.099 h -27.939 v -137.1 h 32.366 v 93.786 c 8.949,5.2 16.444,9.037 22.319,11.428 6.132,2.495 12.224,3.76 18.105,3.76 H 10.422 L 14.606,0 Z" /></g><g
           transform="translate(393.7148,115.791)"
           id="g226"><path
             id="path228"
             style="fill:#595a5a;fill-opacity:1;fill-rule:nonzero;stroke:none"
             d="m 0,0 c -3.992,-5.049 -12.063,-7.607 -23.988,-7.607 -11.929,0 -20,2.558 -23.991,7.608 -3.061,3.869 -6.709,12.92 -6.709,34.062 0,21.14 3.649,30.192 6.71,34.064 3.992,5.048 12.063,7.607 23.99,7.607 11.921,0 19.991,-2.559 23.987,-7.605 C 3.061,64.254 6.71,55.199 6.71,34.063 6.71,12.925 3.062,3.872 0,0 m -23.988,105.854 c -22.653,0 -39.199,-5.762 -49.18,-17.128 -9.846,-11.212 -14.633,-29.093 -14.633,-54.663 0,-25.406 4.787,-43.205 14.633,-54.413 9.976,-11.365 26.522,-17.129 49.18,-17.129 22.649,0 39.154,5.722 49.058,17.008 9.759,11.13 14.504,28.967 14.504,54.534 0,25.551 -4.736,43.421 -14.482,54.634 -9.905,11.385 -26.418,17.157 -49.08,17.157" /></g><g
           transform="translate(591.21,218.4043)"
           id="g230"><path
             id="path232"
             style="fill:#595a5a;fill-opacity:1;fill-rule:nonzero;stroke:none"
             d="m 0,0 -17.109,-87 -22.576,75.627 C -41.448,-4.248 -46.735,0 -53.857,0 H -68.32 c -7.097,0 -12.383,-4.143 -14.164,-11.088 L -105.183,-87.393 -122.162,0 h -33.807 l 29.413,-126.504 c 1.855,-6.642 7.199,-10.596 14.347,-10.596 h 14.463 c 7.434,0 12.909,4.252 14.675,11.384 l 21.867,79.873 22.1,-79.881 c 1.761,-7.127 7.141,-11.376 14.422,-11.376 h 14.713 c 6.887,0 12.235,3.915 14.285,10.408 L 33.79,0 Z" /></g></g></g></g></svg>