<?xml version="1.0" encoding="utf-8"?>
<!-- Generator: Adobe Illustrator 14.0.0, SVG Export Plug-In . SVG Version: 6.00 Build 43363)  -->
<!DOCTYPE svg PUBLIC "-//W3C//DTD SVG 1.1//EN" "http://www.w3.org/Graphics/SVG/1.1/DTD/svg11.dtd">
<svg version="1.1" id="Layer_1" xmlns="http://www.w3.org/2000/svg" xmlns:xlink="http://www.w3.org/1999/xlink" x="0px" y="0px"
	 width="400px" height="162.542px" viewBox="-134 -54.452 400 162.542" enable-background="new -134 -54.452 400 162.542"
	 xml:space="preserve">
<g id="layer1_1_" transform="translate(400.89 -415.98)">
	<g id="g3187_1_">
		<g id="g6186_1_" transform="matrix(1.6755 0 0 -1.6917 -334.84 486.75)">
			<path id="path6188_1_" fill="#EF2E32" d="M-80.838,32.61c0-4.385,1.17-7.853,3.512-10.401c2.4-2.58,5.567-3.875,9.5-3.875
				c3.963,0,7.13,1.276,9.5,3.828c2.37,2.55,3.558,5.96,3.558,10.225c0,4.263-1.185,7.669-3.558,10.223
				c-2.403,2.582-5.57,3.869-9.5,3.869c-3.873,0-7.013-1.287-9.412-3.869C-79.638,40.026-80.838,36.691-80.838,32.61
				 M-91.195,32.792c0,6.333,2.264,11.724,6.801,16.165c4.533,4.443,10.054,6.665,16.57,6.665c6.542,0,12.097-2.237,16.661-6.71
				c4.503-4.475,6.754-9.966,6.754-16.48c0-6.574-2.266-12.083-6.8-16.528c-4.564-4.413-10.164-6.619-16.794-6.619
				c-6.576,0-12.084,2.251-16.528,6.754C-88.977,20.482-91.195,26.068-91.195,32.792"/>
		</g>
		<path id="path6194_1_" fill="#FFFFFF" d="M-338.385,366.142c-2.361,0-4.363,0.888-6.058,2.627
			c-1.697,1.734-2.555,3.803-2.555,6.191c0,2.513,0.861,4.628,2.555,6.372c1.694,1.743,3.725,2.628,6.125,2.628
			s4.436-0.885,6.092-2.628c1.695-1.737,2.521-3.83,2.521-6.3c0-2.462-0.826-4.563-2.521-6.256
			C-333.929,367.033-335.985,366.145-338.385,366.142L-338.385,366.142L-338.385,366.142z M-346.649,392.456v76.282h16.594v-76.282
			H-346.649L-346.649,392.456z"/>
		<path id="path6196_1_" fill="#FFFFFF" d="M-211.319,468.735h-16.596v-76.282h16.596V468.735L-211.319,468.735z M-228.261,374.951
			c0-2.388,0.846-4.457,2.536-6.2c1.695-1.734,3.72-2.607,6.081-2.607c2.397,0,4.445,0.873,6.135,2.607
			c1.689,1.705,2.539,3.788,2.539,6.256c0,2.468-0.85,4.575-2.539,6.315c-1.651,1.743-3.679,2.613-6.075,2.613
			c-2.403,0-4.445-0.87-6.138-2.613C-227.415,379.583-228.261,377.458-228.261,374.951"/>
		<g id="g6447_1_" transform="matrix(.99955 0 0 1.023 -1053.6 -130.43)">
			<g id="text6218_1_">
				<path id="path844_1_" fill="#FFFFFF" d="M538.206,492.142c0-1.77-0.24-3.347-0.72-4.715c-0.457-1.391-1.112-2.575-1.966-3.532
					c-0.836-0.978-1.846-1.715-3.03-2.213c-1.164-0.524-2.454-0.784-3.869-0.784c-1.438,0-2.749,0.26-3.93,0.784
					c-1.189,0.524-2.206,1.267-3.061,2.251c-0.851,0.957-1.518,2.132-1.997,3.526c-0.455,1.395-0.689,2.977-0.689,4.747
					c0,1.765,0.231,3.347,0.689,4.747c0.479,1.371,1.134,2.549,1.97,3.529c0.851,0.958,1.864,1.693,3.024,2.213
					c1.184,0.5,2.5,0.749,3.933,0.749c1.415,0,2.715-0.261,3.902-0.781c1.186-0.524,2.208-1.258,3.059-2.216
					c0.848-0.978,1.506-2.164,1.966-3.558C537.966,495.486,538.206,493.904,538.206,492.142z M533.712,492.205
					c0,2.222-0.467,3.925-1.406,5.117c-0.915,1.183-2.142,1.779-3.681,1.779c-1.54,0-2.784-0.607-3.747-1.817
					c-0.956-1.203-1.436-2.919-1.436-5.143c0-2.228,0.457-3.934,1.374-5.126c0.935-1.18,2.174-1.779,3.711-1.779
					c1.539,0,2.787,0.608,3.748,1.817C533.232,488.259,533.712,489.978,533.712,492.205L533.712,492.205z"/>
				<path id="path846_1_" fill="#FFFFFF" d="M560.305,488.17c0-1.163-0.193-2.172-0.591-3.026c-0.394-0.873-0.94-1.603-1.625-2.19
					c-0.684-0.584-1.483-1.004-2.402-1.279c-0.915-0.289-1.879-0.434-2.9-0.434h-9.551v21.846h4.37v-7.741h4.808
					c1.125,0,2.164-0.133,3.122-0.405c0.979-0.272,1.821-0.697,2.527-1.278c0.706-0.59,1.261-1.322,1.655-2.219
					C560.109,490.536,560.305,489.44,560.305,488.17z M555.805,488.268c0,1.892-1.039,2.838-3.122,2.838h-5.086v-5.621h5.024
					c0.976,0,1.745,0.229,2.313,0.686C555.521,486.614,555.805,487.31,555.805,488.268L555.805,488.268z"/>
				<path id="path848_1_" fill="#FFFFFF" d="M580.876,503.093v-4.279h-11.267v-5.268h6.272v-4.247h-6.272v-3.778h10.796v-4.276
					H565.24v21.846H580.876z"/>
				<path id="path850_1_" fill="#FFFFFF" d="M604.006,503.093v-21.846h-4.312v9.24c0,0.312,0,0.694,0,1.154
					c0.021,0.46,0.034,0.923,0.034,1.406c0,0.457,0,0.894,0,1.304c0.021,0.402,0.029,0.697,0.029,0.911
					c-0.145-0.292-0.376-0.671-0.691-1.125c-0.29-0.48-0.573-0.925-0.839-1.342l-7.742-11.548H586.3v21.849h4.312v-9.612
					c0-0.313-0.009-0.697-0.034-1.154c0-0.463,0-0.923,0-1.374c0-0.477-0.012-0.917-0.032-1.311c0-0.413,0-0.732,0-0.934
					c0.145,0.286,0.365,0.674,0.654,1.154c0.316,0.457,0.602,0.894,0.876,1.307l8.02,11.927L604.006,503.093L604.006,503.093z"/>
			</g>
			<g id="text6222_1_">
				<path id="path833_1_" fill="#FFFFFF" d="M623.891,497.352c0-0.81-0.104-1.533-0.313-2.152c-0.206-0.622-0.564-1.195-1.06-1.715
					c-0.48-0.524-1.125-0.998-1.933-1.438c-0.816-0.44-1.825-0.874-3.032-1.308c-1.103-0.396-1.997-0.758-2.684-1.094
					c-0.668-0.338-1.189-0.668-1.562-0.998c-0.375-0.356-0.623-0.705-0.747-1.062c-0.128-0.373-0.188-0.789-0.188-1.241
					c0-0.437,0.069-0.851,0.214-1.218c0.17-0.402,0.419-0.738,0.749-1.036c0.354-0.286,0.8-0.521,1.346-0.683
					c0.539-0.185,1.184-0.286,1.934-0.286c1.1,0,2.052,0.179,2.839,0.538c0.811,0.333,1.609,0.83,2.4,1.495l1.563-1.903
					c-0.918-0.729-1.893-1.302-2.935-1.718c-1.018-0.413-2.257-0.625-3.716-0.625c-1.021,0-1.954,0.125-2.81,0.376
					c-0.833,0.249-1.549,0.625-2.154,1.123c-0.579,0.48-1.039,1.062-1.369,1.747c-0.335,0.689-0.5,1.475-0.5,2.343
					c0,0.796,0.106,1.493,0.312,2.092c0.23,0.602,0.585,1.154,1.06,1.655c0.5,0.477,1.146,0.934,1.936,1.371
					c0.812,0.416,1.809,0.836,2.997,1.247c0.999,0.356,1.829,0.709,2.497,1.062c0.663,0.333,1.196,0.671,1.593,1.03
					c0.416,0.35,0.709,0.735,0.873,1.154c0.17,0.42,0.249,0.873,0.249,1.371c0,1.169-0.428,2.077-1.279,2.751
					c-0.833,0.665-1.979,0.992-3.43,0.992c-1.125,0-2.164-0.237-3.125-0.717c-0.957-0.477-1.852-1.114-2.682-1.906l-1.624,1.814
					c0.876,0.873,1.936,1.606,3.185,2.19c1.269,0.561,2.652,0.842,4.151,0.842c1.146,0,2.165-0.157,3.059-0.469
					c0.897-0.313,1.654-0.738,2.275-1.279c0.623-0.544,1.097-1.186,1.406-1.941C623.721,499.003,623.891,498.208,623.891,497.352z"
					/>
				<path id="path835_1_" fill="#FFFFFF" d="M645.46,503.093v-21.846h-2.437v9.332h-10.867v-9.332h-2.437v21.846h2.437v-10.298
					h10.867v10.298H645.46z"/>
				<path id="path837_1_" fill="#FFFFFF" d="M654.573,503.093v-21.846h-2.437v21.846H654.573z"/>
				<path id="path839_1_" fill="#FFFFFF" d="M674.082,483.458v-2.21h-12.831v21.846h2.437v-10.171h5.993v-2.219h-5.993v-7.237
					h10.394V483.458z"/>
				<path id="path841_1_" fill="#FFFFFF" d="M693.094,483.458v-2.21h-15.297v2.21h6.43v19.636h2.437v-19.636H693.094z"/>
			</g>
		</g>
		<path id="path6212_1_" fill="#FFFFFF" d="M-279.021,392.657c-10.917,0-20.18,3.723-27.776,11.239
			c-7.597,7.511-11.381,16.667-11.381,27.379c0,11.375,3.72,20.795,11.165,28.314c7.445,7.617,16.69,11.455,27.705,11.455
			c4.978,0,9.588-0.778,13.873-2.27l5.439,8.422c7.62,11.802,7.511,20.23-0.326,25.255c-2.592,1.669-13.917,6.333-14.051,6.052
			l7.274,15.566c15.062-2.717,44.194-19.846,26.261-48.637l-10.191-15.778c7.486-7.487,11.239-16.729,11.239-27.776
			c0-11.017-3.768-20.31-11.311-27.876C-258.741,396.442-268.057,392.66-279.021,392.657L-279.021,392.657z M-279.021,408.11
			c6.587,0,11.899,2.187,15.921,6.555c3.975,4.317,5.942,10.082,5.942,17.291c0,7.212-1.962,12.977-5.942,17.291
			c-3.975,4.317-9.277,6.448-15.921,6.448c-6.588,0-11.899-2.148-15.921-6.52c-3.921-4.314-5.874-10.191-5.874-17.61
			c0-6.904,1.994-12.527,6.016-16.895C-290.779,410.303-285.506,408.11-279.021,408.11L-279.021,408.11z"/>
		<path id="path3058_1_" fill="#FFFFFF" d="M-166.272,391.517c-0.506,0.012-1.007,0.033-1.501,0.065
			c-0.988,0.077-1.947,0.207-2.894,0.396c-0.048,0.012-0.095,0.033-0.143,0.042c-0.426,0.083-0.84,0.177-1.252,0.29
			c-12.1,2.788-23.926,12.816-23.887,29.083l-0.039,47.346h16.928v-38.433c0-13.971,4.533-21.017,13.601-21.144
			c9.073,0.127,13.604,7.167,13.604,21.144v38.433h16.966l-0.035-47.346c0.041-16.252-11.802-26.287-23.891-29.083
			c-0.471-0.11-0.92-0.237-1.391-0.323c-0.944-0.189-1.938-0.316-2.927-0.399c-0.023-0.003-0.054,0.003-0.071,0
			c-0.479-0.042-0.947-0.056-1.429-0.065c-0.039-0.003-0.068,0-0.107,0C-165.255,391.506-165.769,391.506-166.272,391.517
			L-166.272,391.517z"/>
		<g id="g3052_1_" transform="matrix(1.7114 0 0 -1.6897 -271.86 477.92)">
			<path id="path3054_1_" fill="#FFFFFF" d="M-73.52,33.444C-73.554,46.727-60.081,53-51.314,50.664l-0.027-10.2
				c0,0.184-1.952,0.228-3.782,0.228c-5.524,0-8.285-4.173-8.285-12.519V5.433h-10.134"/>
		</g>
	</g>
	<g id="g3068_1_" transform="translate(-1055.2 -136.88)">
	</g>
</g>
</svg>
