<svg version="1.1" viewBox="0.0 0.0 960.0 371.5196850393701" fill="none" stroke="none" stroke-linecap="square" stroke-miterlimit="10" xmlns:xlink="http://www.w3.org/1999/xlink" xmlns="http://www.w3.org/2000/svg"><clipPath id="p.0"><path d="m0 0l960.0 0l0 371.51968l-960.0 0l0 -371.51968z" clip-rule="nonzero"/></clipPath><g clip-path="url(#p.0)"><path fill="#000000" fill-opacity="0.0" d="m0 0l960.0 0l0 371.51968l-960.0 0z" fill-rule="evenodd"/><path fill="#6aa84f" d="m72.0 281.8832l269.7638 0l0 12.944885l-269.7638 0z" fill-rule="evenodd"/><path fill="#f1c232" d="m341.7638 281.8832l270.45667 0l0 12.944885l-270.45667 0z" fill-rule="evenodd"/><path fill="#cc0000" d="m612.22046 281.8832l269.7638 0l0 12.944885l-269.7638 0z" fill-rule="evenodd"/><path fill="#000000" fill-opacity="0.0" d="m-0.010498688 -0.114173226l960.0 0l0 371.74802l-960.0 0z" fill-rule="evenodd"/><path fill="#326de6" d="m164.31036 264.88583l-40.359375 0l0 -156.76562l-51.6875 0l0 -33.59375l143.73438 0l0 33.59375l-51.6875 0l0 156.76562zm159.10855 -148.29688q8.078125 0 13.40625 1.171875l-2.984375 37.234383q-4.828125 -1.296875 -11.71875 -1.296875q-19.015625 0 -29.625 9.765625q-10.609375 9.765625 -10.609375 27.34375l0 74.078125l-39.71875 0l0 -145.5625l30.078125 0l5.859375 24.468758l1.953125 0q6.78125 -12.234375 18.296875 -19.718758q11.515625 -7.484375 25.0625 -7.484375zm38.15152 -34.90625q0 -19.390625 21.609375 -19.390625q21.625 0 21.625 19.390625q0 9.25 -5.40625 14.390625q-5.40625 5.140625 -16.21875 5.140625q-21.609375 0 -21.609375 -19.53125zm41.40625 183.20312l-39.71875 0l0 -145.5625l39.71875 0l0 145.5625zm134.11139 0l-7.6875 -19.796875l-1.046875 0q-10.015625 12.640625 -20.640625 17.53125q-10.609375 4.875 -27.65625 4.875q-20.96875 0 -33.015625 -11.984375q-12.03125 -11.984375 -12.03125 -34.109375q0 -23.1875 16.203125 -34.1875q16.21875 -11.0 48.890625 -12.171875l25.265625 -0.78125l0 -6.375q0 -22.140625 -22.65625 -22.140625q-17.453125 0 -41.015625 10.546875l-13.15625 -26.8125q25.140625 -13.156258 55.734375 -13.156258q29.296875 0 44.921875 12.765633q15.625 12.75 15.625 38.796875l0 97.0l-27.734375 0zm-11.71875 -67.4375l-15.375 0.515625q-17.3125 0.515625 -25.78125 6.25q-8.453125 5.71875 -8.453125 17.4375q0 16.796875 19.265625 16.796875q13.796875 0 22.0625 -7.9375q8.28125 -7.9375 8.28125 -21.09375l0 -11.96875zm207.01453 -78.12501l0 20.171883l-22.78125 5.859375q6.25 9.765625 6.25 21.875q0 23.4375 -16.34375 36.53125q-16.34375 13.078125 -45.375 13.078125l-7.15625 -0.390625l-5.859375 -0.65625q-6.125 4.6875 -6.125 10.421875q0 8.59375 21.875 8.59375l24.734375 0q23.96875 0 36.53125 10.296875q12.5625 10.28125 12.5625 30.203125q0 25.515625 -21.296875 39.578125q-21.28125 14.0625 -61.125 14.0625q-30.46875 0 -46.546875 -10.609375q-16.078125 -10.609375 -16.078125 -29.75q0 -13.15625 8.203125 -22.015625q8.203125 -8.84375 24.09375 -12.625q-6.125 -2.609375 -10.6875 -8.53125q-4.546875 -5.921875 -4.546875 -12.5625q0 -8.328125 4.8125 -13.859375q4.8125 -5.546875 13.9375 -10.875q-11.46875 -4.953125 -18.171875 -15.890625q-6.703125 -10.9375 -6.703125 -25.78125q0 -23.828125 15.484375 -36.84375q15.5 -13.015633 44.28125 -13.015633q6.109375 0 14.5 1.109375q8.40625 1.09375 10.75 1.625l50.78125 0zm-112.359375 166.14062q0 8.203125 7.875 12.890625q7.875 4.6875 22.078125 4.6875q21.34375 0 33.453125 -5.859375q12.109375 -5.859375 12.109375 -16.015625q0 -8.203125 -7.171875 -11.328125q-7.15625 -3.125 -22.125 -3.125l-20.5625 0q-10.9375 0 -18.296875 5.140625q-7.359375 5.140625 -7.359375 13.609375zm14.453125 -118.484375q0 11.84375 5.40625 18.75q5.40625 6.890625 16.46875 6.890625q11.1875 0 16.390625 -6.890625q5.21875 -6.90625 5.21875 -18.75q0 -26.3125 -21.609375 -26.3125q-21.875 0 -21.875 26.3125zm182.14514 -22.140625q-12.625 0 -19.78125 8.015625q-7.15625 8.0 -8.203125 22.71875l55.71875 0q-0.25 -14.71875 -7.671875 -22.71875q-7.421875 -8.015625 -20.0625 -8.015625zm5.609375 122.65625q-35.15625 0 -54.953125 -19.40625q-19.78125 -19.40625 -19.78125 -54.9375q0 -36.59375 18.28125 -56.578125q18.296875 -19.984383 50.59375 -19.984383q30.859375 0 48.046875 17.578133q17.1875 17.578125 17.1875 48.5625l0 19.265625l-93.875 0q0.640625 16.921875 10.015625 26.4375q9.375 9.5 26.296875 9.5q13.15625 0 24.875 -2.734375q11.71875 -2.734375 24.484375 -8.71875l0 30.71875q-10.421875 5.21875 -22.28125 7.75q-11.84375 2.546875 -28.890625 2.546875z" fill-rule="nonzero"/></g></svg>