<?xml version="1.0" encoding="UTF-8" standalone="no"?>
<!DOCTYPE svg PUBLIC "-//W3C//DTD SVG 1.1//EN"
 "http://www.w3.org/Graphics/SVG/1.1/DTD/svg11.dtd">
<!-- Generated by graphviz version 2.36.0 (20140111.2315)
 -->
<!-- Title: G Pages: 1 -->
<svg width="985pt" height="963pt"
 viewBox="0.00 0.00 985.00 963.00" xmlns="http://www.w3.org/2000/svg" xmlns:xlink="http://www.w3.org/1999/xlink">
<g id="graph0" class="graph" transform="scale(1 1) rotate(0) translate(4 959)">
<title>G</title>
<polygon fill="white" stroke="none" points="-4,4 -4,-959 981,-959 981,4 -4,4"/>
<text text-anchor="middle" x="488.5" y="-7.8" font-family="Times,serif" font-size="14.00">Last updated 2017&#45;07&#45;13</text>
<g id="clust1" class="cluster"><title>cluster_Prow</title>
<polygon fill="none" stroke="blue" points="218,-406 218,-751 896,-751 896,-406 218,-406"/>
<text text-anchor="middle" x="557" y="-735.8" font-family="Times,serif" font-size="14.00">Prow</text>
</g>
<g id="clust2" class="cluster"><title>cluster_legend</title>
<polygon fill="none" stroke="black" points="219,-31 219,-136 407,-136 407,-31 219,-31"/>
<text text-anchor="middle" x="313" y="-120.8" font-family="Times,serif" font-size="14.00">Legend</text>
</g>
<!-- legend_ext -->
<g id="node1" class="node"><title>legend_ext</title>
<polygon fill="gray" stroke="black" points="398.5,-103 337.5,-103 337.5,-41 398.5,-41 398.5,-103"/>
<text text-anchor="middle" x="368" y="-75.8" font-family="Times,serif" font-size="14.00">External</text>
<text text-anchor="middle" x="368" y="-60.8" font-family="Times,serif" font-size="14.00">Service</text>
</g>
<!-- GCS -->
<g id="node2" class="node"><title>GCS</title>
<polygon fill="gray" stroke="black" points="389.25,-318.5 346.75,-318.5 346.75,-275.5 389.25,-275.5 389.25,-318.5"/>
<text text-anchor="middle" x="368" y="-293.3" font-family="Times,serif" font-size="14.00">GCS</text>
</g>
<!-- PubSub -->
<g id="node3" class="node"><title>PubSub</title>
<polygon fill="gray" stroke="black" points="267.25,-223.5 208.75,-223.5 208.75,-164.5 267.25,-164.5 267.25,-223.5"/>
<text text-anchor="middle" x="238" y="-190.3" font-family="Times,serif" font-size="14.00">PubSub</text>
</g>
<!-- GCS&#45;&gt;PubSub -->
<g id="edge18" class="edge"><title>GCS&#45;&gt;PubSub</title>
<path fill="none" stroke="black" d="M346.533,-279.322C327.18,-264.286 298.298,-241.847 275.193,-223.896"/>
<polygon fill="black" stroke="black" points="277.33,-221.124 267.286,-217.753 273.035,-226.652 277.33,-221.124"/>
</g>
<!-- Testgrid -->
<g id="node10" class="node"><title>Testgrid</title>
<g id="a_node10"><a xlink:href="https://testgrid.k8s.io" xlink:title="Testgrid">
<polygon fill="lightblue" stroke="black" points="417.216,-199.562 368,-212 318.784,-199.562 318.83,-179.438 417.17,-179.438 417.216,-199.562"/>
<text text-anchor="middle" x="368" y="-190.3" font-family="Times,serif" font-size="14.00">Testgrid</text>
</a>
</g>
</g>
<!-- GCS&#45;&gt;Testgrid -->
<g id="edge23" class="edge"><title>GCS&#45;&gt;Testgrid</title>
<path fill="none" stroke="black" d="M368,-264.837C368,-247.51 368,-226.606 368,-212.21"/>
<polygon fill="black" stroke="black" points="364.5,-265.073 368,-275.073 371.5,-265.073 364.5,-265.073"/>
</g>
<!-- Gubernator -->
<g id="node11" class="node"><title>Gubernator</title>
<g id="a_node11"><a xlink:href="https://gubernator.k8s.io" xlink:title="Gubernator">
<polygon fill="lightblue" stroke="black" points="772.494,-199.562 710,-212 647.506,-199.562 647.564,-179.438 772.436,-179.438 772.494,-199.562"/>
<text text-anchor="middle" x="710" y="-190.3" font-family="Times,serif" font-size="14.00">Gubernator</text>
</a>
</g>
</g>
<!-- GCS&#45;&gt;Gubernator -->
<g id="edge7" class="edge"><title>GCS&#45;&gt;Gubernator</title>
<path fill="none" stroke="black" d="M399.298,-286.757C463.299,-267.856 608.715,-224.912 675.407,-205.216"/>
<polygon fill="black" stroke="black" points="397.993,-283.493 389.394,-289.682 399.975,-290.206 397.993,-283.493"/>
</g>
<!-- GitHub -->
<g id="node4" class="node"><title>GitHub</title>
<polygon fill="gray" stroke="black" points="741.25,-954.5 684.75,-954.5 684.75,-897.5 741.25,-897.5 741.25,-954.5"/>
<text text-anchor="middle" x="713" y="-922.3" font-family="Times,serif" font-size="14.00">GitHub</text>
</g>
<!-- Mungegithub -->
<g id="node8" class="node"><title>Mungegithub</title>
<g id="a_node8"><a xlink:href="https://submit-queue.k8s.io" xlink:title="Mungegithub">
<polygon fill="lightblue" stroke="black" points="681.956,-846.562 610,-859 538.044,-846.562 538.111,-826.438 681.889,-826.438 681.956,-846.562"/>
<text text-anchor="middle" x="610" y="-837.3" font-family="Times,serif" font-size="14.00">Mungegithub</text>
</a>
</g>
</g>
<!-- GitHub&#45;&gt;Mungegithub -->
<g id="edge3" class="edge"><title>GitHub&#45;&gt;Mungegithub</title>
<path fill="none" stroke="black" d="M676.641,-895.701C663.134,-884.817 648.102,-872.703 635.738,-862.74"/>
<polygon fill="black" stroke="black" points="674.599,-898.551 684.582,-902.1 678.992,-893.1 674.599,-898.551"/>
<polygon fill="black" stroke="black" points="637.639,-859.777 627.656,-856.228 633.246,-865.228 637.639,-859.777"/>
</g>
<!-- GitHub&#45;&gt;Gubernator -->
<g id="edge2" class="edge"><title>GitHub&#45;&gt;Gubernator</title>
<path fill="none" stroke="black" d="M741.622,-919.85C798.862,-908.732 922,-880.358 922,-842 922,-842 922,-842 922,-296 922,-232.665 843.929,-209.004 782.541,-200.19"/>
<polygon fill="black" stroke="black" points="782.834,-196.698 772.46,-198.852 781.913,-203.637 782.834,-196.698"/>
<text text-anchor="middle" x="949.5" y="-568.3" font-family="Times,serif" font-size="14.00">PR events</text>
</g>
<!-- Hook -->
<g id="node12" class="node"><title>Hook</title>
<ellipse fill="none" stroke="black" cx="793" cy="-687" rx="95.1892" ry="26.7407"/>
<text text-anchor="middle" x="793" y="-690.8" font-family="Times,serif" font-size="14.00">Hook</text>
<text text-anchor="middle" x="793" y="-675.8" font-family="Times,serif" font-size="14.00">handle GitHub events</text>
</g>
<!-- GitHub&#45;&gt;Hook -->
<g id="edge5" class="edge"><title>GitHub&#45;&gt;Hook</title>
<path fill="none" stroke="black" d="M722.334,-897.349C736.879,-854.258 764.945,-771.113 780.983,-723.599"/>
<polygon fill="black" stroke="black" points="784.332,-724.623 784.214,-714.029 777.699,-722.384 784.332,-724.623"/>
<text text-anchor="middle" x="764.5" y="-837.3" font-family="Times,serif" font-size="14.00">events</text>
</g>
<!-- BigQuery -->
<g id="node5" class="node"><title>BigQuery</title>
<g id="a_node5"><a xlink:href="https://bigquery.cloud.google.com/table/k8s-gubernator:build.week" xlink:title="BigQuery">
<polygon fill="gray" stroke="black" points="140,-332 70,-332 70,-262 140,-262 140,-332"/>
<text text-anchor="middle" x="105" y="-293.3" font-family="Times,serif" font-size="14.00">BigQuery</text>
</a>
</g>
</g>
<!-- Triage -->
<g id="node7" class="node"><title>Triage</title>
<g id="a_node7"><a xlink:href="https://go.k8s.io/triage" xlink:title="Triage">
<polygon fill="lightblue" stroke="black" points="146.166,-199.562 105,-212 63.8336,-199.562 63.8721,-179.438 146.128,-179.438 146.166,-199.562"/>
<text text-anchor="middle" x="105" y="-190.3" font-family="Times,serif" font-size="14.00">Triage</text>
</a>
</g>
</g>
<!-- BigQuery&#45;&gt;Triage -->
<g id="edge22" class="edge"><title>BigQuery&#45;&gt;Triage</title>
<path fill="none" stroke="black" d="M105,-251.772C105,-237.747 105,-223.066 105,-212.148"/>
<polygon fill="black" stroke="black" points="101.5,-251.806 105,-261.806 108.5,-251.806 101.5,-251.806"/>
</g>
<!-- legend_site -->
<g id="node6" class="node"><title>legend_site</title>
<polygon fill="lightblue" stroke="black" points="318.987,-82.3298 273,-105.428 227.013,-82.3298 227.056,-44.9563 318.944,-44.9563 318.987,-82.3298"/>
<text text-anchor="middle" x="273" y="-75.8" font-family="Times,serif" font-size="14.00">Serves</text>
<text text-anchor="middle" x="273" y="-60.8" font-family="Times,serif" font-size="14.00">HTTP</text>
</g>
<!-- Deck -->
<g id="node9" class="node"><title>Deck</title>
<g id="a_node9"><a xlink:href="https://prow.k8s.io" xlink:title="Deck\nfrontend">
<polygon fill="lightblue" stroke="black" points="522.285,-697.33 468,-720.428 413.715,-697.33 413.765,-659.956 522.235,-659.956 522.285,-697.33"/>
<text text-anchor="middle" x="468" y="-690.8" font-family="Times,serif" font-size="14.00">Deck</text>
<text text-anchor="middle" x="468" y="-675.8" font-family="Times,serif" font-size="14.00">frontend</text>
</a>
</g>
</g>
<!-- Mungegithub&#45;&gt;Deck -->
<g id="edge6" class="edge"><title>Mungegithub&#45;&gt;Deck</title>
<path fill="none" stroke="black" d="M596.351,-826.113C590.109,-819.72 582.64,-812.012 576,-805 548.677,-776.147 517.986,-742.806 496.324,-719.115"/>
<polygon fill="black" stroke="black" points="498.67,-716.494 489.342,-711.471 493.502,-721.215 498.67,-716.494"/>
<text text-anchor="middle" x="591" y="-793.3" font-family="Times,serif" font-size="14.00">read</text>
<text text-anchor="middle" x="591" y="-778.3" font-family="Times,serif" font-size="14.00">batch</text>
<text text-anchor="middle" x="591" y="-763.3" font-family="Times,serif" font-size="14.00">jobs</text>
</g>
<!-- Splice -->
<g id="node13" class="node"><title>Splice</title>
<ellipse fill="none" stroke="black" cx="610" cy="-687" rx="70.0054" ry="26.7407"/>
<text text-anchor="middle" x="610" y="-690.8" font-family="Times,serif" font-size="14.00">Splice</text>
<text text-anchor="middle" x="610" y="-675.8" font-family="Times,serif" font-size="14.00">start batch jobs</text>
</g>
<!-- Mungegithub&#45;&gt;Splice -->
<g id="edge4" class="edge"><title>Mungegithub&#45;&gt;Splice</title>
<path fill="none" stroke="black" d="M610,-816.21C610,-788.417 610,-742.594 610,-713.917"/>
<polygon fill="black" stroke="black" points="606.5,-816.243 610,-826.243 613.5,-816.243 606.5,-816.243"/>
<text text-anchor="middle" x="626.5" y="-785.8" font-family="Times,serif" font-size="14.00">read</text>
<text text-anchor="middle" x="626.5" y="-770.8" font-family="Times,serif" font-size="14.00">queue</text>
</g>
<!-- ApiServer -->
<g id="node19" class="node"><title>ApiServer</title>
<polygon fill="none" stroke="black" points="543.325,-565.403 531.179,-590.485 482,-601.648 432.821,-590.485 420.675,-565.403 454.708,-545.288 509.292,-545.288 543.325,-565.403"/>
<text text-anchor="middle" x="482" y="-575.8" font-family="Times,serif" font-size="14.00">Kubernetes</text>
<text text-anchor="middle" x="482" y="-560.8" font-family="Times,serif" font-size="14.00">API Server</text>
</g>
<!-- Deck&#45;&gt;ApiServer -->
<g id="edge13" class="edge"><title>Deck&#45;&gt;ApiServer</title>
<path fill="none" stroke="black" d="M471.247,-659.792C473.036,-645.351 475.29,-627.163 477.271,-611.171"/>
<polygon fill="black" stroke="black" points="480.77,-611.396 478.526,-601.041 473.823,-610.535 480.77,-611.396"/>
<text text-anchor="middle" x="488" y="-624.3" font-family="Times,serif" font-size="14.00">read</text>
</g>
<!-- Testgrid&#45;&gt;legend_ext -->
<!-- Hook&#45;&gt;ApiServer -->
<g id="edge14" class="edge"><title>Hook&#45;&gt;ApiServer</title>
<path fill="none" stroke="black" d="M736.319,-665.405C680.671,-645.186 596.193,-614.491 540.07,-594.099"/>
<polygon fill="black" stroke="black" points="541.22,-590.793 530.626,-590.668 538.829,-597.373 541.22,-590.793"/>
<text text-anchor="middle" x="689" y="-624.3" font-family="Times,serif" font-size="14.00">create ProwJob</text>
</g>
<!-- Splice&#45;&gt;ApiServer -->
<g id="edge12" class="edge"><title>Splice&#45;&gt;ApiServer</title>
<path fill="none" stroke="black" d="M582.854,-662.036C563.333,-644.802 536.872,-621.441 515.951,-602.973"/>
<polygon fill="black" stroke="black" points="518.044,-600.151 508.231,-596.157 513.411,-605.399 518.044,-600.151"/>
</g>
<!-- Plank -->
<g id="node14" class="node"><title>Plank</title>
<ellipse fill="none" stroke="black" cx="311" cy="-687" rx="84.2802" ry="26.7407"/>
<text text-anchor="middle" x="311" y="-690.8" font-family="Times,serif" font-size="14.00">Plank</text>
<text text-anchor="middle" x="311" y="-675.8" font-family="Times,serif" font-size="14.00">ProwJob controller</text>
</g>
<!-- Plank&#45;&gt;GitHub -->
<g id="edge9" class="edge"><title>Plank&#45;&gt;GitHub</title>
<path fill="none" stroke="black" d="M321.869,-713.647C339.315,-751.58 377.256,-822.12 432,-859 507.317,-909.739 616.814,-921.716 674.357,-924.384"/>
<polygon fill="black" stroke="black" points="674.347,-927.886 684.477,-924.781 674.622,-920.891 674.347,-927.886"/>
<text text-anchor="middle" x="480.5" y="-844.8" font-family="Times,serif" font-size="14.00">update PR status</text>
<text text-anchor="middle" x="480.5" y="-829.8" font-family="Times,serif" font-size="14.00">comment failures</text>
</g>
<!-- Tot -->
<g id="node15" class="node"><title>Tot</title>
<ellipse fill="none" stroke="black" cx="314" cy="-572" rx="88.0829" ry="26.7407"/>
<text text-anchor="middle" x="314" y="-575.8" font-family="Times,serif" font-size="14.00">Tot</text>
<text text-anchor="middle" x="314" y="-560.8" font-family="Times,serif" font-size="14.00">vend build numbers</text>
</g>
<!-- Plank&#45;&gt;Tot -->
<g id="edge11" class="edge"><title>Plank&#45;&gt;Tot</title>
<path fill="none" stroke="black" d="M311.688,-660.076C312.086,-645.109 312.592,-626.047 313.029,-609.576"/>
<polygon fill="black" stroke="black" points="316.538,-609.285 313.305,-599.195 309.54,-609.099 316.538,-609.285"/>
</g>
<!-- Plank&#45;&gt;ApiServer -->
<g id="edge10" class="edge"><title>Plank&#45;&gt;ApiServer</title>
<path fill="none" stroke="black" d="M346.431,-662.586C373.914,-644.425 412.054,-619.222 440.881,-600.172"/>
<polygon fill="black" stroke="black" points="443.093,-602.906 449.506,-594.473 439.234,-597.066 443.093,-602.906"/>
</g>
<!-- Sinker -->
<g id="node16" class="node"><title>Sinker</title>
<ellipse fill="none" stroke="black" cx="482" cy="-452" rx="68.9457" ry="37.4533"/>
<text text-anchor="middle" x="482" y="-463.3" font-family="Times,serif" font-size="14.00">Sinker</text>
<text text-anchor="middle" x="482" y="-448.3" font-family="Times,serif" font-size="14.00">deletes old</text>
<text text-anchor="middle" x="482" y="-433.3" font-family="Times,serif" font-size="14.00">pods/ProwJobs</text>
</g>
<!-- Horologium -->
<g id="node17" class="node"><title>Horologium</title>
<ellipse fill="none" stroke="black" cx="677" cy="-452" rx="108.281" ry="26.7407"/>
<text text-anchor="middle" x="677" y="-455.8" font-family="Times,serif" font-size="14.00">Horologium</text>
<text text-anchor="middle" x="677" y="-440.8" font-family="Times,serif" font-size="14.00">create periodic ProwJobs</text>
</g>
<!-- Job -->
<g id="node18" class="node"><title>Job</title>
<ellipse fill="none" stroke="black" cx="368" cy="-452" rx="27" ry="18"/>
<text text-anchor="middle" x="368" y="-448.3" font-family="Times,serif" font-size="14.00">Job</text>
</g>
<!-- Job&#45;&gt;GCS -->
<g id="edge8" class="edge"><title>Job&#45;&gt;GCS</title>
<path fill="none" stroke="black" d="M368,-433.746C368,-408.259 368,-360.163 368,-328.603"/>
<polygon fill="black" stroke="black" points="371.5,-328.59 368,-318.59 364.5,-328.59 371.5,-328.59"/>
<text text-anchor="middle" x="440" y="-384.3" font-family="Times,serif" font-size="14.00">publish</text>
<text text-anchor="middle" x="440" y="-369.3" font-family="Times,serif" font-size="14.00">started.json, finished.json,</text>
<text text-anchor="middle" x="440" y="-354.3" font-family="Times,serif" font-size="14.00">build&#45;log.txt, artifacts/</text>
</g>
<!-- ApiServer&#45;&gt;Sinker -->
<g id="edge16" class="edge"><title>ApiServer&#45;&gt;Sinker</title>
<path fill="none" stroke="black" d="M482,-535.056C482,-520.644 482,-504.053 482,-489.578"/>
<polygon fill="black" stroke="black" points="478.5,-535.104 482,-545.104 485.5,-535.104 478.5,-535.104"/>
</g>
<!-- ApiServer&#45;&gt;Horologium -->
<g id="edge17" class="edge"><title>ApiServer&#45;&gt;Horologium</title>
<path fill="none" stroke="black" d="M525.959,-544.399C559.365,-524.184 604.926,-496.614 637.249,-477.055"/>
<polygon fill="black" stroke="black" points="524.057,-541.459 517.313,-549.631 527.681,-547.448 524.057,-541.459"/>
</g>
<!-- ApiServer&#45;&gt;Job -->
<g id="edge15" class="edge"><title>ApiServer&#45;&gt;Job</title>
<path fill="none" stroke="black" d="M452.741,-546.32C444.836,-539.314 436.42,-531.537 429,-524 413.942,-508.704 398.185,-490.292 386.458,-476.051"/>
<polygon fill="black" stroke="black" points="389.088,-473.739 380.054,-468.204 383.665,-478.164 389.088,-473.739"/>
<text text-anchor="middle" x="453.5" y="-512.3" font-family="Times,serif" font-size="14.00">start Pod</text>
</g>
<!-- Kettle -->
<g id="node20" class="node"><title>Kettle</title>
<ellipse fill="none" stroke="black" cx="105" cy="-452" rx="105.039" ry="26.7407"/>
<text text-anchor="middle" x="105" y="-455.8" font-family="Times,serif" font-size="14.00">Kettle</text>
<text text-anchor="middle" x="105" y="-440.8" font-family="Times,serif" font-size="14.00">get GCS results into BQ</text>
</g>
<!-- Kettle&#45;&gt;GCS -->
<g id="edge19" class="edge"><title>Kettle&#45;&gt;GCS</title>
<path fill="none" stroke="black" d="M155.202,-428.23C175.05,-418.798 197.882,-407.408 218,-396 261.099,-371.56 308.633,-339.596 338.4,-318.931"/>
<polygon fill="black" stroke="black" points="340.475,-321.751 346.674,-313.16 336.47,-316.01 340.475,-321.751"/>
<text text-anchor="middle" x="302" y="-369.3" font-family="Times,serif" font-size="14.00">read</text>
</g>
<!-- Kettle&#45;&gt;PubSub -->
<g id="edge20" class="edge"><title>Kettle&#45;&gt;PubSub</title>
<path fill="none" stroke="black" d="M120.468,-425.166C125.827,-416.021 131.792,-405.617 137,-396 167.45,-339.767 200.268,-273.236 219.967,-232.588"/>
<polygon fill="black" stroke="black" points="223.122,-234.103 224.325,-223.577 216.82,-231.056 223.122,-234.103"/>
<text text-anchor="middle" x="218" y="-293.3" font-family="Times,serif" font-size="14.00">read</text>
</g>
<!-- Kettle&#45;&gt;BigQuery -->
<g id="edge21" class="edge"><title>Kettle&#45;&gt;BigQuery</title>
<path fill="none" stroke="black" d="M105,-425.046C105,-402.466 105,-369.252 105,-342.447"/>
<polygon fill="black" stroke="black" points="108.5,-342.152 105,-332.152 101.5,-342.152 108.5,-342.152"/>
<text text-anchor="middle" x="119" y="-369.3" font-family="Times,serif" font-size="14.00">write</text>
</g>
</g>
</svg>
